<svg width="256" height="256" viewBox="0 0 256 256" fill="none" xmlns="http://www.w3.org/2000/svg">
  <rect width="256" height="256" rx="128" fill="#F67E12"/>
  <path d="M86.3199 140.24C86.3199 137.12 83.1999 134.64 79.4399 134.64C75.6799 134.64 72.5599 137.12 72.5599 140.24C72.5599 143.36 75.6799 145.84 79.4399 145.84C83.1999 145.84 86.3199 143.36 86.3199 140.24ZM183.44 140.24C183.44 137.12 180.32 134.64 176.56 134.64C172.8 134.64 169.68 137.12 169.68 140.24C169.68 143.36 172.8 145.84 176.56 145.84C180.32 145.84 183.44 143.36 183.44 140.24ZM192.32 122.48H140.24C136 122.48 132.48 125.6 132.48 129.52V153.28C132.48 157.2 136 160.32 140.24 160.32H192.32C196.56 160.32 200.08 157.2 200.08 153.28V129.52C200.08 125.6 196.56 122.48 192.32 122.48ZM115.76 122.48H63.6799C59.4399 122.48 55.9199 125.6 55.9199 129.52V153.28C55.9199 157.2 59.4399 160.32 63.6799 160.32H115.76C120 160.32 123.52 157.2 123.52 153.28V129.52C123.52 125.6 120 122.48 115.76 122.48ZM135.52 96.32C135.52 107.04 126.08 115.68 114.72 115.68C103.36 115.68 93.9199 107.04 93.9199 96.32C93.9199 85.6 103.36 76.96 114.72 76.96C126.08 76.96 135.52 85.6 135.52 96.32ZM162.08 96.32C162.08 107.04 152.64 115.68 141.28 115.68C129.92 115.68 120.48 107.04 120.48 96.32C120.48 85.6 129.92 76.96 141.28 76.96C152.64 76.96 162.08 85.6 162.08 96.32Z" fill="white"/>
</svg>
